<?xml version="1.0" standalone="no"?>
<!DOCTYPE svg PUBLIC "-//W3C//DTD SVG 20010904//EN"
 "http://www.w3.org/TR/2001/REC-SVG-20010904/DTD/svg10.dtd">
<svg version="1.0" xmlns="http://www.w3.org/2000/svg"
 width="280.000000pt" height="280.000000pt" viewBox="0 0 280.000000 280.000000"
 preserveAspectRatio="xMidYMid meet">

<g transform="translate(0.000000,280.000000) scale(0.100000,-0.100000)"
fill="#000000" stroke="none">
<path d="M0 1400 l0 -1400 1400 0 1400 0 0 1400 0 1400 -1400 0 -1400 0 0
-1400z m1305 1225 c77 -33 115 -89 170 -249 13 -39 38 -109 55 -156 17 -47 40
-110 50 -141 10 -30 32 -88 49 -128 17 -40 31 -79 31 -87 0 -8 4 -22 9 -32 44
-83 51 -123 50 -286 0 -179 4 -177 -51 -26 -11 30 -26 67 -34 82 -8 14 -14 35
-14 46 0 12 -4 23 -9 26 -5 3 -11 16 -14 28 -2 13 -19 61 -37 108 -17 47 -40
110 -50 140 -26 76 -73 205 -98 265 -28 67 -73 195 -79 223 -7 31 -60 82 -86
83 -79 4 -109 -24 -146 -138 -11 -32 -34 -96 -51 -143 -47 -127 -91 -252 -97
-275 -3 -11 -9 -24 -13 -30 -4 -5 -17 -37 -28 -70 -12 -33 -40 -112 -62 -175
-23 -63 -64 -176 -90 -250 -27 -74 -57 -157 -68 -185 -12 -27 -34 -88 -51
-135 -83 -237 -173 -488 -182 -509 -5 -13 -8 -26 -5 -28 3 -3 38 24 78 59 96
84 142 115 268 180 111 58 275 118 375 138 33 6 79 16 102 21 23 5 74 9 112 9
l71 0 0 -55 0 -55 78 -2 c51 -1 26 -4 -73 -9 -296 -14 -512 -84 -742 -241
-152 -103 -270 -226 -408 -425 -20 -28 -59 -39 -91 -24 -29 13 -32 59 -8 117
9 22 66 176 126 344 60 168 115 319 122 335 8 17 28 71 46 120 17 50 49 137
70 195 21 58 52 146 70 195 18 50 38 104 45 120 8 17 20 50 29 75 8 25 38 108
66 185 28 77 55 151 60 165 11 35 83 230 115 315 15 39 33 90 42 115 47 142
178 214 298 165z m430 -1765 c42 -11 1 -11 -50 -1 -34 7 -35 9 -10 9 17 0 44
-4 60 -8z m72 -16 c-3 -3 -12 -4 -19 -1 -8 3 -5 6 6 6 11 1 17 -2 13 -5z m308
-112 c-3 -3 -11 0 -18 7 -9 10 -8 11 6 5 10 -3 15 -9 12 -12z m40 -20 c-3 -3
-11 0 -18 7 -9 10 -8 11 6 5 10 -3 15 -9 12 -12z m36 -19 c13 -16 12 -17 -3
-4 -17 13 -22 21 -14 21 2 0 10 -8 17 -17z m189 -129 c0 -3 -13 4 -30 16 -16
12 -30 24 -30 26 0 3 14 -4 30 -16 17 -12 30 -24 30 -26z"/>
</g>
</svg>
