<?xml version="1.0" standalone="no"?>
<!DOCTYPE svg PUBLIC "-//W3C//DTD SVG 20010904//EN"
 "http://www.w3.org/TR/2001/REC-SVG-20010904/DTD/svg10.dtd">
<svg version="1.0" xmlns="http://www.w3.org/2000/svg"
 width="225.000000pt" height="225.000000pt" viewBox="0 0 225.000000 225.000000"
 preserveAspectRatio="xMidYMid meet">

<g transform="translate(0.000000,225.000000) scale(0.100000,-0.100000)"
fill="#000000" stroke="none">
<path d="M257 1870 c-26 -30 -31 -65 -12 -84 9 -9 13 -16 9 -16 -4 0 1 -9 11
-20 10 -11 22 -17 27 -14 4 3 7 2 6 -3 -5 -14 74 -103 85 -96 5 3 7 2 4 -4 -4
-5 2 -19 11 -29 10 -10 100 -115 201 -232 101 -116 186 -214 191 -217 8 -5 53
42 140 145 30 36 75 88 100 115 25 28 88 100 140 160 52 61 97 112 100 115 3
3 21 25 41 50 20 25 50 59 65 76 16 16 38 40 48 52 l19 22 -584 0 c-571 0
-585 0 -602 -20z"/>
</g>
</svg>
